/* XPM */
static char *c62178c2526f4d4cc09c1ca13a00a439cq4kza16Yvm37plu[] = {
/* columns rows colors chars-per-pixel */
"64 64 27 1 ",
"  c #171515",
". c #1A1717",
"X c #1A1817",
"o c #1E1B1B",
"O c #211E1E",
"+ c #221F20",
"@ c #252222",
"# c #292626",
"$ c #2A2728",
"% c #2D2A2A",
"& c #312E2E",
"* c #353232",
"= c #393636",
"- c #3D3A3A",
"; c #413E3E",
": c #444242",
"> c #494646",
", c #4C4B4B",
"< c #514F4F",
"1 c #555353",
"2 c #585656",
"3 c #5C5A5A",
"4 c #605F5F",
"5 c #646262",
"6 c #686666",
"7 c #6C6B6B",
"8 c #706E6E",
/* pixels */
"&&$%;%%%*##**&;@@-*&X@%=O&@*##%%@%#*###OO@@&;%%%O**=#%%%O%#@=*##",
"O@=:,=%@###&,:%-:*O=@XO#@@%=@O#%%#&;=#@%O@#o#%%%%*;*%&%#&@#O1>%O",
"oO*-&&###%&%;&@**%@@*@@%$#*#&&%@#%-*%&#&%@@@&&*%&@%#%&##&@%%*=%O",
"@$$&;;%$&#%%@@#O=;==*$@%&*=&%%#@##%%&###==@O<=&&&**&O%%#@O#%%%%@",
"##O@#@##%%#%#*@&@*&#%=&&-##%%%@@&-*#@@# @#*@@%%%&&*&%%%@OO#%@@@%",
"%==O@%$@%;&#@@&&;&%#&=;;&$&%%%%#->=@&#=3%@@O@%%%###O%%##@#%%@O#%",
"==:=*&*@O%%##>;*&#&%&%#&%;>@%#$%&*=.O#-:#*##@@*=&&#@&%*;O%&%&;&%",
"&-*==-&&#O@%&-;*%*&o*@#@&&%$&%%&=##->%==%&#%##&&=#&#&%*&&*#O%*#@",
"=#%**%&=@@@#%#%***#OO@*%%@@$@-$&;&#%&#&%&%&*&*=&###%;%@;##O#OO#%",
"@#%%@OO%*%@%#%%&%&*%#@@@&%&%=;-=;-##O&&%#@O#&*1-;&%;2;&%%%&#&&&@",
"OO#&##O#@&O@##&%#@##;*###*#%&*@*%&;*=-#@%@@%=*&@#@#OOO#%##*;#%OO",
"@=*;>1&##,%@&*%####%,;>>&-O&%#;=O#->:%#@%#%&&=42##OO#&##%&%;%%##",
"&=;*<4;@%>%@%O&#*#&#%%*-#***&:;#@O$*%%#%%%%#@&:-@O&;#&O#%%O;;@#@",
"O;<*=&O@#*%##%%=%#@@&#@&#&=%@&@$@#@%%%$*@%&%##O%&O<>;%%%%#&;;#%#",
"#=>&%@O#&#%&%OO%&&&==-**&&$&%@&%&%%*%%%=O%=#%=@#&#;;%&##%#%#%%&%",
"%##@&&=O&%#1;%#&&#-*;%*=$$@&&@O&*=;--*,&*%=&%@&O%#&&;&%;%;;##O##",
"1;%%&O##O##>#O#*&*=O##@=>;#O##@@*-;-&*6&>%*;%%#@*#OOO@@&,*##%%&#",
"O;#;&#%&##O#%#;%#;#O#OOO##:@@*&&%&*=*@##%%&#%#O@###O@@&&*##%%%;&",
"%##@O#&&##O&%%%O<**%;O&O##@#;#&*>%*##*#;&@##%*%%#;;*&%#;*%%#*;;&",
"=&@O#%%##O#&#&O#>%>;O&;&*&%::=&;o#&=-#&%#,**;%&%%;#%*@%##%%#%#%%",
"%%#O%**OO;O###;4;#%;*&=;&@&#;>%;%#*;#&;&&%&O%5%&&#%&;@#&@######&",
"#OO&%##;4;#%%O;>O;%&#=OO;>@@%#%&%#:&O;;%1*&%;%@%>#&#&>&;4&&&&%#:",
"##*;%%O&<;##&#O##*%#O##%&=>&&;#+#=%@%%%&=%*&%*#@;#6@O%&#;%=*#%%%",
"%#%##%>#%>;%%#;%%&#&O#=&&&;*;;&&%*<%&@;1,##O%&O.O&&#%%;;;;;##*##",
"O#%%O#O&##&%#%#%##;&;%%O%**&*;O%%%,&#*:,;#;##&%O**@&@%O%OO@@&>#%",
"O%%##*;<%##*%###>#*%;;;%&;;;;O#%#*;1%-:&=&@#&&>=;*&O#4%O#&###&;#",
"%#%&&;;;;;;;&%#*>**#OO&####*&;=&=&&*&=%#%%&%#O#&##&###=&&;##4O;O",
"@@##;;O#;&##@%%%&%%#O;O#1%%&O#&%%&###%%%%@#%#O#%@.%&%#;%O#;O#&#%",
"@@##;;>%###*%%&&%%%%%&#&;;;=#%&%#;***&@##&%&%%%%#@&%#%*#O2;;;O##",
"#&%#@.#%%###=&%%&###%%;#@%&@&OO#%*;;;*#@##@#&%&&@@%##*&;=#%@OO%#",
";@@@O#O;>*#%%OO@%#OO####%&&@%&O#*&===-&%@@@OO@%%%#%#@*&;=#;;>;;;",
"@O#&%;;;;*;;&&O#OO&%&;#O&&*&&;*@1&#&==&>OO=:#O#&52@@%&#@&1&%*###",
"%O@#&-;:--=##:1#%%@##&#@%%#&#=<<##%##@;@#+#@@@#%<:&#=&#%=&%O%##@",
"%O@#&*=%-=%%#;<O@@&*%&%&*@&**%&#%%&&*=>=%>>%@o%&O$;=:&*&***&@XO%",
"##&*%*@@@%*&##O@@=<@#&=-*&&***#%@%&;&##&**&%#%&,%*%&@*@#%*@*;%%&",
"#&;;:&%*>O=%%#@&%>OO#O#%%%&*&=*&=%##&#OO@@#@+1>-%#:*OO%%@OO=%&44",
"##X#%#@*--&**#%%%##@O%#O#&*#%@@:;&#@##-&@@#X@%&=5;:-%#%%#O%*#O=O",
"%%O##%=,:;%#%-@&-=##O#*O=&**&&*@&@#>&--=##%@-2&@,%&%%%*%@%*%O#%%",
"%#&&@#@**=:##-#%*#&-#X&%%#@#--@#&2=%#*&&#O:<=:&#:#@&*%*&#@##O@O@",
",@*O@@O#%&-&%#%##%#==%#%&%#O@%&&%>=@%%%@@-:7=%#%+@#%--#X#*#O@#%X",
"@&=#%@O&@@:**&-**#%%%#;%@##%%%%#&%O##&##<2==##=@*:@#&-&o@&%%@@&#",
"=;*&%;;%%%=*&:5&#O#Oo@**@#=*####@%>1#%&%*:*%@*-@&&=&&#O#%@X@oo#O",
"%#%*&:;&%%#%=,<*OOO#%&&#@%%%*%&#=%*;#&#3*=-@%%==-;;&&#>&&#OX@##%",
"=%&==%#&@%%###&O=;%*-@@%#%&%&%%=*****#%;%%*O%%%*&--&%&;-*-=;%%@#",
"=@#%*=*#%%##@@@@@%#*<%*;;%%#O@%*=*#%&%#%@O@%%O%=2&%-#=-%*-&@X*o%",
"#@O,>-%&%**:<%%##%4O#>=&-O%%@&#%*#%%#%#%&O@@O%;;%#=*#=#&%*%&==@&",
"@#@O@@&&%#;-%#*-#;:=O&&#,=&$%-%@%##O@@:<*@O@O@*&-&*%*@=oOOOO==&O",
"#%#%#O@=*&<=%*-:****2%O%>>##@@%#=%#@@@;<=@;&&=%*-@##@@@%=#<,O-;=",
"=OO%&=&%%==-#@>*=#&=-,@#@#=*&#%&O#%#@$*3$O=#2,@%#=***@=*=&:2@#%:",
"&*##:=*%*=*##O*;;o*>#=%&O@$$%$%%,%&%%-=&%#-:&*&=O#%#O&*@#%*=%%@%",
"@*&=:-#%%:@%%*@O+@,*:;3;=#@1O@@%#;%@$%#O%&&:-&>*##&#O%&;*=*=%###",
"%#O#*%$%==%==&<&+@=*=;=%3-#&&@@%=,,o%-&&O&#%#=,*%%%#%&@@@#%#&##%",
"#@%%#%&&*#&=:*1%&;2===o:&#%O#*#&O%o#=&#=>*==O&=$%%#@##%%%&@&O#@O",
"=*-=-%##&o%*@#OXXO&;#*&=-=o32@=*#%&--*#$=:=%@#@#&OO@@#%#@$&&-%*;",
"%=&:%@*=$<,*o%$@&*#,===%>,@1%#$%;=*=#&%@#=*##@O@###%&@&*&=**#-=#",
"o#O>&@Oo-:;%*&%%=O@*#OO#%&==@%#@&##<:&*&O$##$$#$#-*@%;=%&$--*:&#",
"&%#O&=%**%*%%2#%O===#:#&%%#%@*:@O#%#&&*=#*O$$$&==%&*#&#&#&&O@#@#",
"-=%##*O&&#%%@@#;@=%&@#&#O@O=#-8=#&%,3%&&:1-+@$@o@>=&&@#@#%@@#+@-",
"-&%%&@#@:O*#X<==***>%%&#@##%#*,@@&=*=&=*&-&$O@$$<2:#%#&&%%O@##%-",
"*&%&&=**@@#1@#OOO@*&@O*#@%#&*;2&$%%$*$2&@$O@&%*##3&##&-#%%#@@#--",
"***%@**##*@-<@-%2:@#%#%@@@%#=**&=##$=,OO@*@O%*#####$@%=&%X@++%@%",
"#%@%#&&%&#&#;@*&<%%*:-*@OX@%**O;,%@##&$=*#*&%@%%#%#+&%%#%%*=@%&+",
"=*##%&%%;@@%==:<=#&@*;#@@@O,**@####@#%*==*&:;##%@#=::&#@*+@++*=-",
"*=#O=#@%&*@&*%&&Oo#@&*%*@%@%#&&%&&@=&Oo&**-:#@%$+o*-=#&%@&%##=+@"
};
