/* XPM */
static char *result[] = {
/* columns rows colors chars-per-pixel */
"64 64 12 1 ",
"  c #795548",
". c #D50000",
"X c #FC0505",
"o c #8A5D4E",
"O c #E57373",
"+ c #3F51B5",
"@ c #5567BD",
"# c #BDB7AC",
"$ c #E3B5A6",
"% c #FFF8EB",
"& c white",
"* c None",
/* pixels */
"****************************************************************",
"****************************************************************",
"****************************************************************",
"****************************************************************",
"****************************************************************",
"****************************************************************",
"****************************************************************",
"****************************************************************",
"****************************************************************",
"****************************************************************",
"***************XXX**********************************************",
"**************XXXXX*********************************************",
"*************XXXX%XX********************************************",
"************XXXXXX%XX*******************************************",
"************XXXXXXXXX*******************************************",
"************XXXXXXXXX*******************************************",
"************XXXXXXXXX*******************************************",
"************XXXXXXXXX*******************************************",
"*************XXXXXXX********************************************",
"**************XXXXX*********************************************",
"***************XXX**********************************************",
"****************#***********************************************",
"***************#************************************************",
"***************#************************************************",
"***************#************************************************",
"***************#************************************************",
"***************#************************************************",
"**************#*************************************************",
"**************#*************************************************",
"**************#*************************************************",
"**************#*************************************************",
"**************#********+++++++**********************************",
"**************#*******++++++++++********************************",
"**************#******+++++++++++********************************",
"**************#******+++++++++++++++****************************",
"**************#******  $$$$$$$  ********************************",
"**************#******  $&$$$&$  ********************************",
"**************#****** $$ $$$ $  ********************************",
"***************#*****$$$$$$$$$$ ********************************",
"***************#*****$$$$$$$$$$$********************************",
"***************#*****$$$O$$$O$$$********************************",
"***************#******$$$OOO$$$*********************************",
"***************#*******$$$$$$$**********************************",
"***************#*********$$$************************************",
"****************#***++++$$$$$+++********************************",
"****************#**++@@+$$$$$+@++*******************************",
"****************#**+@@@+++++++@@++******************************",
"****************#**+@@@@@@@@@@@@@++*****************************",
"****************#**+@@@@@@@@@@@@@@++****************************",
"****************#**+@@+@@@@@@@@+@@@++***************************",
"*****************#*+@@+@@@@@@@@++@@@+****  *********************",
"*****************#*+@@+@@@@@@@@+++@@@*** o *****  **************",
"*****************#*+@@+@@@@@@@@+*++$  ** o      o  *************",
"*****************#+@@++@@@@@@@@+***$   * o ooooooo *************",
"*****************$$@@+*+@@@@@@@+****   *  oooooo o *************",
"*****************$$@+**+++++++++****    * oo.o.oo **************",
"******************$+**+++++++++++****     oooooooo *************",
"********************++@@@@@@@@@+++****     ooooooo   ***********",
"*******************+@@@@@@@@@@@@@+*****    o..o.o    ***********",
"******************+@@@++++++*@@@@+******  oooo..o *   **********",
"******************+@@@+  ****   ++******  ooooooo **  **********",
"*******************+@@   ****   +******* ooo oooo **************",
"********************+    ****   ********* oo    oo *************",
"*****************************************   ****   *************"
};
