/* XPM */
static char *f5602ee6bd82488d9aca5fb868c13d4fMGvBAOofWxWo5ITb[] = {
/* columns rows colors chars-per-pixel */
"64 64 6 1 ",
"  c None",
". c black",
"X c #45423D",
"o c #BDB7AC",
"O c #E3DBCF",
"+ c #FAF2E3",
/* pixels */
"                                                                ",
"                                                                ",
"         ........  ......     .....     .......     ....        ",
"         .++++++....++++..  ...+++... ...+++++.......++.        ",
"         .++++++++.++++++....+++++++...+++++++++..+++++.        ",
"         .++++++++++++++++..++++++++++++++++++++++++++..        ",
"         ..+++++++++++++++++++++++++++++++++++++++++++.         ",
"          ..+++++++++++++++++++++++++++++++++XX++++++..         ",
"         ..++++++++++++++++++++++++++++++++XXXX++++++..         ",
"         .++++++++++++++++++++++++++++++++X+++XX++++++..        ",
"         .+++++++++++++++++++++++++++++++XX++++XX++++++.        ",
"         .++++++++++++++++++++++++X+++++++X+++++X++++++.        ",
"         ..+++++++++++++++++++XXX+X+++++++X+++++X++++++.        ",
"          ..++++++++++++++XXXX+++++X+++++++X++++X++++++.        ",
"           ..++++++++X+++XX++++++++X+++++++X++++X++++++.        ",
"            .++X+++++XX++XX+++++++++X+++++++X++XX+++++..        ",
"           ..++X++++++X+++X+++++++++X+++++++XXXX+++++..         ",
"          ..+++X++++++X+++X+++++++++X+++++++XX+++++++.          ",
"         ..++++X+++++++X++XX++++++++XX+++++++X+++++++.          ",
"         .+++++X+++++++X+++X++++X++++X+++++++XX+++++..          ",
"         .++++++X+++++++X++X+++X+++++X++++++++X+++++.           ",
"         .++++++X++++++XX++XXXX+++++++X+++++++XX++++..          ",
"         .++++++X+++XXX+X+++XX++++++++X+++++X++X+++++..         ",
"         ..+++++X+XXX++++X++XX++++++++XX++XXX++XX+++++..        ",
"          ..++++XXX++++++X+++X+++++++++XXX+++++++++++++.        ",
"          ..+++++X+++++++XX++X+++++++++++++++++++++++++.        ",
"         ..++++++X++++++++X++XX+++XXX++++++++++++++++++.        ",
"         .+++++++X++++++++X+++X+XXX+++++++++++++++++++..        ",
"         .+++++++XX++++++++X++XXX+++++++++++++++++++++.         ",
"         .++++++++X++++++++X+++++++++++++++++++++++++..         ",
"         ..+++++++X++++++++++++++++++++XX++++++++++++...        ",
"          ..++++++XX+++++++++++++++++XXX++++++++++++.oo.        ",
"         ..++++++++X++++++++++++++XXX++++++++++++++..oo.        ",
"         .++++++++++++++++++++++++X++++++++++++++++.Ooo.        ",
"         .+++++++++++++++++++X+++++X++++++++++++++.OOoo.        ",
"         ..++++++++++++++++++XX++++X+++++XX++++++..OOoo.        ",
"          ..+++++++++++++++++XX++++XX+++XX++++++..+OOoo.        ",
"          ..++++++++++++++++XXXX++++X+XX+++++++..++OOoo.        ",
"         ..+++++++++++++++++X++X++++XX+++++++++.++OOoo..        ",
"         .++++++++++++XX++++X++XX++++X+++++++..+++OOoo.         ",
"         .++++++++++++XXXXX+X+++X++++X++++++..+++OOOo..         ",
"         .++++++++++++XX++XXX+++X++++XX++...+++++OOoo.          ",
"         .+++++++++++++X+++++++++X+++....+++++++OOOo..          ",
"         ..+++++++++++++X++++++++XX++.++++++++++OOoo.           ",
"          .+++++++++++++XX++++++++XX+.+++++++++OOOoo.           ",
"          ..+++++++++++++X+++++++++X+.++++++++OOOooo.           ",
"           ..+++++++++++++X+++++++++X.++++++++OOOooo.           ",
"           .++++++++++++++X+++++++++..+++++++OOOooo..           ",
"          ..+++++++++++++++X++++++++.+++++++OOOOoo..            ",
"         ..++++++++++++++++XX+++++++.++++++OOOOooo.             ",
"         .++++++++++++++++++X+++++++.+++++OOOOoo...             ",
"         .+++++++++++++++++++++++++..++++OOOoooo.               ",
"         ..++++++++++++++++++++++++.++++OOOoooo..               ",
"          ..++++++++++++++++++++++..+++OOOoooo..                ",
"           ..+++++++++++++++++++XX.++OOOOoooo..                 ",
"           .+++++++++++++++++XXX+..OOOOoooo...                  ",
"           .+++++++++++++++XX+++..OOOooooo..                    ",
"          ..++++++++++++++++++..ooooooooo..                     ",
"         ..++++++++++++++++...ooooooooo...                      ",
"         .++++++++...+++++..oooo...oo...                        ",
"         .++++++... ...+++.ooo... ....                          ",
"         ........     .........                                 ",
"                                                                ",
"                                                                "
};
