/* XPM */
static char *f20c752e0eae4187edb5fecfd4b81d03dMmNYDwfkNYM10l0[] = {
/* columns rows colors chars-per-pixel */
"64 64 4 1 ",
"  c None",
". c black",
"X c #45423D",
"o c #FAF2E3",
/* pixels */
"                                                                ",
"                                                                ",
"         ........  ......     .....     .......     ....        ",
"         .oooooo....oooo..  ...ooo... ...ooooo.......oo.        ",
"         .oooooooo.oooooo....ooooooo...ooooooooo..ooooo.        ",
"         .oooooooooooooooo..oooooooooooooooooooooooooo..        ",
"         ..ooooooooooooooooooooooooooooooooooooooooooo.         ",
"          ..oooooooooooooooooooooooooooooooooXXoooooo..         ",
"         ..ooooooooooooooooooooooooooooooooXXXXoooooo..         ",
"         .ooooooooooooooooooooooooooooooooXoooXXoooooo..        ",
"         .oooooooooooooooooooooooooooooooXXooooXXoooooo.        ",
"         .ooooooooooooooooooooooooXoooooooXoooooXoooooo.        ",
"         ..oooooooooooooooooooXXXoXoooooooXoooooXoooooo.        ",
"          ..ooooooooooooooXXXXoooooXoooooooXooooXoooooo.        ",
"           ..ooooooooXoooXXooooooooXoooooooXooooXoooooo.        ",
"            .ooXoooooXXooXXoooooooooXoooooooXooXXooooo..        ",
"           ..ooXooooooXoooXoooooooooXoooooooXXXXooooo..         ",
"          ..oooXooooooXoooXoooooooooXoooooooXXooooooo.          ",
"         ..ooooXoooooooXooXXooooooooXXoooooooXooooooo.          ",
"         .oooooXoooooooXoooXooooXooooXoooooooXXooooo..          ",
"         .ooooooXoooooooXooXoooXoooooXooooooooXooooo.           ",
"         .ooooooXooooooXXooXXXXoooooooXoooooooXXoooo..          ",
"         .ooooooXoooXXXoXoooXXooooooooXoooooXooXooooo..         ",
"         ..oooooXoXXXooooXooXXooooooooXXooXXXooXXooooo..        ",
"          ..ooooXXXooooooXoooXoooooooooXXXooooooooooooo.        ",
"          ..oooooXoooooooXXooXooooooooooooooooooooooooo.        ",
"         ..ooooooXooooooooXooXXoooXXXoooooooooooooooooo.        ",
"         .oooooooXooooooooXoooXoXXXooooooooooooooooooo..        ",
"         .oooooooXXooooooooXooXXXooooooooooooooooooooo.         ",
"         .ooooooooXooooooooXooooooooooooooooooooooooo..         ",
"         ..oooooooXooooooooooooooooooooXXoooooooooooo..         ",
"          ..ooooooXXoooooooooooooooooXXXoooooooooooooo.         ",
"         ..ooooooooXooooooooooooooXXXooooooooooooooooo.         ",
"         .ooooooooooooooooooooooooXooooooooooooooooooo..        ",
"         .oooooooooooooooooooXoooooXooooooooooooooooooo.        ",
"         ..ooooooooooooooooooXXooooXoooooXXoooooooooooo.        ",
"          ..oooooooooooooooooXXooooXXoooXXooooooooooooo.        ",
"          ..ooooooooooooooooXXXXooooXoXXooooooooooooooo.        ",
"         ..oooooooooooooooooXooXooooXXoooooooooooooooo..        ",
"         .ooooooooooooXXooooXooXXooooXoooooooooooooooo.         ",
"         .ooooooooooooXXXXXoXoooXooooXooooooooooooooo..         ",
"         .ooooooooooooXXooXXXoooXooooXXoooooooooooooo.          ",
"         .oooooooooooooXoooooooooXooooXooooooXXooooo..          ",
"         ..oooooooooooooXooooooooXXoooXXooXXXXoooooo.           ",
"          .oooooooooooooXXooooooooXXoooXXXXooooooooo.           ",
"          ..oooooooooooooXoooooooooXooooooooooooooo..           ",
"           ..oooooooooooooXoooooooooXooooooooooooooo.           ",
"           .ooooooooooooooXooooooooooooooooooooXoooo..          ",
"          ..oooooooooooooooXoooooooooooooooooXXXooooo..         ",
"         ..ooooooooooooooooXXoooooooooooooooXXoooooooo..        ",
"         .ooooooooooooooooooXooooooooooooXXXooooooXXooo.        ",
"         .ooooooooooooooooooooooooooooooXXooooooXXooooo.        ",
"         ..oooooooooooooooooooooooooooXXooooooXXooooooo.        ",
"          ..oooooooooooooooooooooooXXXooooooXXXooooooo..        ",
"           ..oooooooooooooooooooXXXooooooooXoooooooooo.         ",
"           .oooooooooooooooooXXXooooooooooXoooooooooo..         ",
"           .oooooooooooooooXXooooooooXXXXXooooooooooo..         ",
"          ..ooooooooooooooooooooooooXXoooooooooooooooo.         ",
"         ..ooooooooooooooooooooooooooooooooooooooooooo..        ",
"         .oooooooo...ooooooooooo...oooooooooo...ooooooo.        ",
"         .oooooo... ...ooo.ooo... ...ooooo.... ....oooo.        ",
"         ........     .........     .......       ......        ",
"                                                                ",
"                                                                "
};
