/* XPM */
static char *_02b141b9c7a4053815c94bc7887ae37b7RLvlmHMcVX9lgp[] = {
/* columns rows colors chars-per-pixel */
"64 64 6 1 ",
"  c None",
". c black",
"X c #45423D",
"o c #BDB7AC",
"O c #E3DBCF",
"+ c #FAF2E3",
/* pixels */
"                                                                ",
"                                                                ",
"         ........  ......     .....     .......     ....        ",
"         .++++++....++++..  ...+++... ...+++++.......++.        ",
"         .++++++++.++++++....+++++++...+++++++++..+++++.        ",
"         .++++++++++++++++..++++++++++++++++++++++++++..        ",
"         ..+++++++++++++++++++++++++++++++++++++++++++.         ",
"          ..+++++++++++++++++++++++++++++++++XX++++++..         ",
"         ..++++++++++++++++++++++++++++++++XXXX++++++.          ",
"         .++++++++++++++++++++++++++++++++X+++XX+++++...        ",
"         .+++++++++++++++++++++++++++++++XX++++XX++++.o.        ",
"         .++++++++++++++++++++++++X+++++++X+++++X++++.o.        ",
"         ..+++++++++++++++++++XXX+X+++++++X+++++X+++.oo.        ",
"          ..++++++++++++++XXXX+++++X+++++++X++++X+++.oo.        ",
"           ..++++++++X+++XX++++++++X+++++++X++++X+++.oo.        ",
"            .++X+++++XX++XX+++++++++X+++++++X++XX++..o..        ",
"           ..++X++++++X+++X+++++++++X+++++++XXXX+++.o..         ",
"          ..+++X++++++X+++X+++++++++X+++++++XX+++++.o.          ",
"         ..++++X+++++++X++XX++++++++XX+++++++X++++.oo.          ",
"         .+++++X+++++++X+++X++++X++++X+++++++XX+++.o..          ",
"         .++++++X+++++++X++X+++X+++++X++++++++X++..o.           ",
"         .++++++X++++++XX++XXXX+++++++X+++++++XX+.oo..          ",
"         .++++++X+++XXX+X+++XX++++++++X+++++X++X..ooo.          ",
"         ..+++++X+XXX++++X++XX++++++++XX++XXX++X.Oooo.          ",
"          ..++++XXX++++++X+++X+++++++++XXX+++++..Oooo.          ",
"          ..+++++X+++++++XX++X+++++++++++++++++.OOooo.          ",
"         ..++++++X++++++++X++XX+++XXX+++++++++.OOooo..          ",
"         .+++++++X++++++++X+++X+XXX++++++++++..OOooo.           ",
"         .+++++++XX++++++++X++XXX+++++++++++..OOOooo.           ",
"         .++++++++X++++++++X++++++++++++++...+OOOooo.           ",
"         ..+++++++X++++++++++++++++++++X...+++OOOoo..           ",
"          ..++++++XX+++++++++++++++++....+++++OOooo.            ",
"         ..++++++++X++++++++..........+++++++OOOoo..            ",
"         .++++++++++++++++++.+++++++++++++++OOOOoo.             ",
"         .++++++++++++++++++.+++++++++++++++OOOoo..             ",
"         ..+++++++++++++++++.++++++++++++++OOOOoo.              ",
"          ..++++++++++++++++.++++++++++++++OOOooo.              ",
"          ..++++++++++++++++.+++++++++++++OOOOoo..              ",
"         ..+++++++++++++++++X.+++++++++++OOOOooo.               ",
"         .++++++++++++XX++++X.++++++++++OOOOoooo.               ",
"         .++++++++++++XXXXX+X.++++++++++OOOOooo..               ",
"         .++++++++++++XX++XXX.+++++++++OOOOoooo.                ",
"         .+++++++++++++X++++..++++++++OOOOOooo..                ",
"         ..+++++++++++++X+++.++++++++OOOOOoooo.                 ",
"          .+++++++++++++XX++.+++++++OOOOOOooo..                 ",
"          ..+++++++++++++X++.++++++OOOOOOoooo.                  ",
"           ..+++++++++++++X..+++++OOOOOOoooo..                  ",
"           .++++++++++++++X.++++OOOOOOOoooo..                   ",
"          ..+++++++++++++++.++OOOOOOOOoooo..                    ",
"         ..+++++++++++++++.++OOOOOOOOooooo.                     ",
"         .++++++++++++++++.+OOOOOOOOoooo...                     ",
"         .+++++++++++++++.+OOOOOOOooooo..                       ",
"         ..+++++++++++++..OOOOOOoooooo..                        ",
"          ..++++++++++++.OOOOOoooooo...                         ",
"           ..++++++++++..OOOOoooooo..                           ",
"           .++++++++++..OOooooooo...                            ",
"           .+++++++++..OOoooooo...                              ",
"          ..+++++++...oooooo....                                ",
"         ..+++++++..ooooo....                                   ",
"         .++++++++...oo...                                      ",
"         .++++++... ....                                        ",
"         .......                                                ",
"                                                                ",
"                                                                "
};
