/* XPM */
static char *db9c4683bfd24c6af7201df0e5d18452QzMlb3CgdfgqJtks[] = {
/* columns rows colors chars-per-pixel */
"64 64 66 1 ",
"  c None",
". c #010102",
"X c #03030B",
"o c #0B0B0D",
"O c #050611",
"+ c #0A0A12",
"@ c #0A0A1E",
"# c #0E1010",
"$ c #131314",
"% c #16161A",
"& c #1C1D1E",
"* c #361E1B",
"= c #2B251F",
"- c #37221B",
"; c #3A221E",
": c #0D0C24",
"> c #1D1E22",
", c #1E1F28",
"< c #1E2026",
"1 c #1F2029",
"2 c #222325",
"3 c #2B2521",
"4 c #242529",
"5 c #262B2D",
"6 c #282B2E",
"7 c #352C23",
"8 c #252731",
"9 c #272932",
"0 c #2A2E32",
"q c #2E2F38",
"w c #302F34",
"e c #2E3037",
"r c #2E3038",
"t c #323539",
"y c #34383C",
"u c #393D3F",
"i c #44231B",
"p c #462420",
"a c #4B2C27",
"s c #4F2F28",
"d c #562F28",
"f c #4F322D",
"g c #43392E",
"h c #563127",
"j c #543129",
"k c #5B352E",
"l c #5D392D",
"z c #433A31",
"x c #5F3730",
"c c #5F3830",
"v c #633B34",
"b c #3B3E42",
"n c #3D4144",
"m c #454544",
"M c #444348",
"N c #514B40",
"B c #504E4C",
"V c #767473",
"C c #787372",
"Z c #C7A98B",
"A c #D2A886",
"S c #D3AA8A",
"D c #EBBF9C",
"F c #E6C39D",
"G c #EAC19D",
"H c #FFF59D",
/* pixels */
"                                                                ",
"                                                                ",
"                                                                ",
"                                                                ",
"                         ......                                 ",
"                       OO;;;;-*XX@                              ",
"                       ..vvvavj..X                              ",
"                      .iidhhavvvvv.                             ",
"                     .iiadvdaakvakv.                            ",
"                     .*xjakkalkjahv.                            ",
"                     .xxavhvaaafvav.                            ",
"                     .iijakaklcaaaa.                            ",
"                     .kkjvaakaaakhv.                            ",
"                     .iiavhcaaxakav.                            ",
"                     .ixjakakaakahao@                           ",
"                     %aSxdvaakaakaav.                           ",
"                     ofAaxaakxkakx..                            ",
"                     oaSaakkaaxaaa.                             ",
"                      #faxkaaxxaka.                             ",
"                      .ijaaajaajka.                             ",
"                       .iaakaakaaa.                             ",
"                       ....ZGN....                              ",
"                      .4>tqwtqqw.                               ",
"                     X,q8qqqqqqe6XX                             ",
"                     .4r0rrqqqqrq..                             ",
"                    Xeee9rrqqqqrr,rX                            ",
"                    Xerr6rrqqrwrq1r.                            ",
"                    .rrr9rrqqqqrr1r.HH                          ",
"                    .rrr9qqqqqqre<eXHHHH                        ",
"                    Xrr99qrqqqqre<eXHHHHH                       ",
"                    .rr96qrqqqqrr1r.HHHHHH                      ",
"                   .rr.99qrqqqqrr<rr.HHHHHH                     ",
"                   .rr.98trqrqqrr%rr.HHHHHHH                    ",
"                   .rr.99rqqwqqrr.rr.HHHHHHH                    ",
"                   .rr.99qrqqqqrr.rq.HHHHHHHH                   ",
"                  Orrr.96qrqqqqrq.r..HHHHHHHH                   ",
"                  +rqo.99qrqrqqrq..GGDHHHHHHH                   ",
"                  orq..99qqqrrqrq..GGGHHHHHHH                   ",
"                  +r0..9999999998..GGGHHHHHHH                   ",
"                  orq.:.99999999.HH..HHHHHHHH                   ",
"                  7GGG..6n6X.6u5.HHHHHHHHHHHH                   ",
"                  7GGG..5n6..5u5.HHHHHHHHHHH                    ",
"                  7GGG..en6X.&eb.HHHHHHHHHHH                    ",
"                  7GGF.nn6.HO&55.HHHHHHHHHH                     ",
"                  :....6n6.HO&0u.HHHHHHHHH                      ",
"                      .9nn. X6nb.HHHHHHHH                       ",
"                      .6ny. o5ny.HHHHHHH                        ",
"                      .6n6. X5u5.HHHHH                          ",
"                      .6nn. O&0b.                               ",
"                      .6n6. O&65.                               ",
"                      .yn6. O2yyX                               ",
"                      .nn6. X5bb.                               ",
"                      .nnn. O&eu.                               ",
"                      .6n6. O&9n.                               ",
"                      Xn05. O5u6.                               ",
"                      .n60. O6u6.                               ",
"                      .96n. O&65.                               ",
"                      .mnn. O&0n.                               ",
"                    @..zzg. O=gg..                              ",
"                   t+33zgg.r%=gg33Oq                            ",
"                   m#zzzzz.m==yggg.m                            ",
"                  mm%VCCVV.m&BCCVC.MM                           ",
"                   mmmmmmmmmMmmmmmMM                            ",
"                                                                "
};
