/* XPM */
static char *cb2bd9fea6264de6f5e4770b8dfbb478wyQ1HWDfTmtSzsdt[] = {
/* columns rows colors chars-per-pixel */
"64 64 118 2 ",
"   c None",
".  c #010102",
"X  c #03030C",
"o  c #0B0B0D",
"O  c #050611",
"+  c #0A0A12",
"@  c #0A0A1E",
"#  c #0E1010",
"$  c #131314",
"%  c #15161A",
"&  c #1C1D1E",
"*  c #361E1B",
"=  c #2B251F",
"-  c #37221B",
";  c #3A221E",
":  c #0D0C24",
">  c #1D1E22",
",  c #1D2025",
"<  c #1E2129",
"1  c #222325",
"2  c #2B2521",
"3  c #242529",
"4  c #262B2E",
"5  c #282B2E",
"6  c #352C23",
"7  c #252731",
"8  c #272931",
"9  c #2A2E32",
"0  c #2D2F39",
"q  c #302F34",
"w  c #2E3037",
"e  c #2E3038",
"r  c #32343B",
"t  c #34383C",
"y  c #44231B",
"u  c #462420",
"i  c #4B2C26",
"p  c #4F2F28",
"a  c #562F29",
"s  c #4F322D",
"d  c #43392E",
"f  c #553127",
"g  c #543129",
"h  c #5A342C",
"j  c #5D392D",
"k  c #433A31",
"l  c #5F3730",
"z  c #5F3931",
"x  c #60382F",
"c  c #633B34",
"v  c #3A3E43",
"b  c #3D4144",
"n  c #3C4049",
"m  c #454544",
"M  c #41424C",
"N  c #4E4E4D",
"B  c #514B40",
"V  c #504E4C",
"C  c #434651",
"Z  c #474A53",
"A  c #4D4E55",
"S  c #524F57",
"D  c #4E505B",
"F  c #776C6C",
"G  c #767473",
"H  c #787372",
"J  c #807B4F",
"K  c #817C51",
"L  c #8B855C",
"P  c #8D895E",
"I  c #8F8B63",
"U  c #938F65",
"Y  c #949166",
"T  c #97936B",
"R  c #99966C",
"E  c #9C996E",
"W  c #9E9A72",
"Q  c #B7906E",
"!  c #B68E73",
"~  c #B78F73",
"^  c #A09C75",
"/  c #A19E77",
"(  c #B49074",
")  c #C7A98B",
"_  c #D2A886",
"`  c #D2A889",
"'  c #D3A989",
"]  c #D4AB8B",
"[  c #D6AE8E",
"{  c #D7AF8F",
"}  c #D1B195",
"|  c #EBBF9B",
" . c #E8BF9C",
".. c #E9BF9C",
"X. c #EBBF9C",
"o. c #E9BF9E",
"O. c #EDBFA2",
"+. c #E6C39D",
"@. c #E9C09C",
"#. c #EAC19C",
"$. c #EBC09D",
"%. c #EAC19D",
"&. c #EAC29C",
"*. c #EBC39C",
"=. c #E9C09E",
"-. c #E9C19F",
";. c #EBC09F",
":. c #EAC19F",
">. c #EBC29E",
",. c #ECC09D",
"<. c #EAC19D",
"1. c #F5DB9D",
"2. c #FFF38A",
"3. c #FFF59D",
"4. c #FFF59D",
"5. c #E9C0A2",
"6. c #EFC4A3",
"7. c #EDC6A6",
/* pixels */
"                                                                                                                                ",
"                                                                                                                                ",
"                                                                                                                                ",
"                                                                                                                                ",
"                                                          X . . . . .                                                           ",
"                                                    + X X * - ; ; ; ; O O                                                       ",
"                                                    X . . h c c c x c . .                                                       ",
"                                                  . c c c c c g f f f y y .                                                     ",
"                                                . c a f c a h j h c a f y y .                                                   ",
"                                                . c a z h x j h x h x a y y .                                                   ",
"                                                . c g c a c j j c f c f y y .                                                   ",
"                                                . c g c a l j j c f c f y y .                                                   ",
"                                                . c a X.#.,.( h c a c a y y .                                                   ",
"                                                . c g  .*.=.( h z a c a y ; .                                                   ",
"                                              @ o c f  .,.=.~ h c h z a j y .                                                   ",
"                                              . c f f  .=.,.Q a f c a c ` p %                                                   ",
"                                                . . 6.=.=.*.#.=.=.=.] =._ s o                                                   ",
"                                                  . =.=.*.=.*.=.=.=.X.=.] i +                                                   ",
"                                                  . ,.=.=.*.X.*.=.&.] i s #                                                     ",
"                                                  . ,.,.*.=.=.=.=.6.[ h y .                                                     ",
"                                                  . 5.,.=.=.=.O.*.=.{ y .                                                       ",
"                                                    . . . . B O.) . . . .                                                       ",
"                                                      . q v F 7.} v r > 3 .                                                     ",
"                                                  X X 5 0 v D D N e 0 4 0 > X                                                   ",
"                                                  . . e 0 v Z D Z 0 e 8 e 3 .                                                   ",
"                                                . e < r 0 v v C n e w 8 e 0 r .                                                 ",
"                                                X 0 > e 0 v C C n w w 8 e e 0 .                                                 ",
"                                          3.3.3.K T U T v v v C n w e 8 e e w X                                                 ",
"                                      3.3.3.3.3.K T I T T W M C n e e 8 w e e .                                                 ",
"                                    3.3.3.3.3.3.K T I T T W / C n e e 8 8 w w X                                                 ",
"                                  3.3.3.3.3.3.3.K T I T T W / / n w e 7 9 e w .                                                 ",
"                                3.3.3.3.3.3.3.J T T I T T W W / W w e 9 8 . e e .                                               ",
"                              4.4.4.4.4.4.4.4.J R R P Y R W ^ / W T e 8 8 . e e .                                               ",
"                              4.4.4.4.4.4.4.4.J Y Y J R R E ^ / W T e 8 8 . e e .                                               ",
"                            4.4.4.4.4.4.4.4.4.J R Y J Y R E / / W T T 8 8 . 0 e .                                               ",
"                            4.4.4.4.4.4.4.4.2.J L R F T R E W W W T T 9 8 . 0 e e o                                             ",
"                            4.4.4.4.4.4.4.4.L 2.2.J 1.U R R R E T T T 7 9 . # e e +                                             ",
"                            4.4.4.4.4.4.4.4.J 2.2.J 1.U R Y Y R Y T T 7 7 . . 0 e o                                             ",
"                            4.4.4.4.4.4.4.4.J 2.2.F 1.Y R E R R W T T 4 4 . . 9 e +                                             ",
"                            4.4.4.4.4.4.4.4.2.J J 4.2.L Y E E Y E T T 0 . : . 0 e o                                             ",
"                            4.4.4.4.4.4.4.4.4.4.3.3.3.L P R U L K Y ^ 5 . . *.#.#.6                                             ",
"                              4.4.4.4.4.4.4.4.4.3.3.3.F Y R U J K Y n 5 . . =.#.#.6                                             ",
"                              4.4.4.4.4.4.4.4.4.3.3.3.K E Y P J K Y b 5 . . &.=.=.6                                             ",
"                                4.4.4.4.4.4.4.4.3.3.3.J Y Y P L 3.. 5 m b . +.6.#.6                                             ",
"                                  4.4.4.4.4.4.4.4.4.4.K E Y I K   . 4 b 5 . . . . :                                             ",
"                                    4.4.4.4.4.4.4.4.4.J E ^ Y X   . b b 4 .                                                     ",
"                                      4.4.4.4.4.4.4.4.J R W 5 o   . t b 4 .                                                     ",
"                                          4.4.4.4.4.4.K 5 t 5 O   . 5 n 5 .                                                     ",
"                                                      . t w & O   . b b 5 .                                                     ",
"                                                      . 3 5 & O   . 4 b 5 .                                                     ",
"                                                      . t t 1 O   . w b t .                                                     ",
"                                                      . b v 4 O   . 5 b b .                                                     ",
"                                                      . v 9 & O   . n b b .                                                     ",
"                                                      . v 9 & O   . 4 b 5 .                                                     ",
"                                                      X 5 b 4 O   . 4 5 b .                                                     ",
"                                                      . 4 t 5 X   . 5 5 n .                                                     ",
"                                                      . 4 4 & O   . b 5 5 .                                                     ",
"                                                      . b w & O   . b n b .                                                     ",
"                                                    . . 6 k 2 O   . d d k . . @                                                 ",
"                                                e + 2 2 k k 2 % e . d d k 2 2 # e                                               ",
"                                                m . k d k k = & m . k k k k k o m                                               ",
"                                              m m . G G G G V = m . H H G G H % m m                                             ",
"                                                m m m m m m m m m m m m m m m m m                                               ",
"                                                                                                                                "
};
