/* XPM */
static char *_cdbd0083d11420ed36d6d23752e7896SFXYxyo7VoWdmnsF[] = {
/* columns rows colors chars-per-pixel */
"64 64 152 2 ",
"   c None",
".  c #010102",
"X  c #04050D",
"o  c #08070E",
"O  c #0B0B0D",
"+  c #050611",
"@  c #0A0A12",
"#  c #0A091B",
"$  c #0E1010",
"%  c #131315",
"&  c #181817",
"*  c #15151A",
"=  c #1C1D1E",
"-  c #361E1B",
";  c #2B251F",
":  c #37221B",
">  c #3A221E",
",  c #0D0C25",
"<  c #1D1E22",
"1  c #14132C",
"2  c #19162E",
"3  c #1A192F",
"4  c #1A1931",
"5  c #231F3A",
"6  c #1F2027",
"7  c #1E2029",
"8  c #1F2037",
"9  c #222325",
"0  c #2B2521",
"q  c #24252A",
"w  c #262B2D",
"e  c #282B2E",
"r  c #352C23",
"t  c #252731",
"y  c #272931",
"u  c #2A2E32",
"i  c #27263A",
"p  c #28273B",
"a  c #2C2C3B",
"s  c #302F34",
"d  c #2E3136",
"f  c #2E3038",
"g  c #343534",
"h  c #32353A",
"j  c #35393D",
"k  c #393C3E",
"l  c #44231B",
"z  c #462420",
"x  c #4B2C26",
"c  c #4F2F28",
"v  c #562F29",
"b  c #4F322D",
"n  c #43392E",
"m  c #553127",
"M  c #543129",
"N  c #5A342C",
"B  c #5D392D",
"V  c #433A31",
"C  c #4B3E31",
"Z  c #5F3730",
"A  c #5F3931",
"S  c #60382F",
"D  c #633B34",
"F  c #53452F",
"G  c #4A4034",
"H  c #40403F",
"J  c #2E2D42",
"K  c #302F42",
"L  c #333344",
"P  c #3A3E44",
"I  c #373548",
"U  c #383749",
"Y  c #3D3D4B",
"T  c #3D4144",
"R  c #3D4049",
"E  c #454544",
"W  c #40414E",
"Q  c #4E4E4D",
"!  c #514B40",
"~  c #504E4C",
"^  c #434552",
"/  c #474A53",
"(  c #4D4A56",
")  c #4E4C58",
"_  c #524F57",
"`  c #514E5A",
"'  c #4E505B",
"]  c #53505C",
"[  c #53505E",
"{  c #50505D",
"}  c #56535D",
"|  c #57545E",
" . c #57565D",
".. c #56555D",
"X. c #58575E",
"o. c #58575E",
"O. c #5A595F",
"+. c #7E6653",
"@. c #565662",
"#. c #575760",
"$. c #565661",
"%. c #575860",
"&. c #5A5962",
"*. c #5E5D62",
"=. c #5B5B67",
"-. c #5D5B63",
";. c #616067",
":. c #6F6F6F",
">. c #776C6C",
",. c #6F6E72",
"<. c #747374",
"1. c #787372",
"2. c #747478",
"3. c #8E7C63",
"4. c #927B65",
"5. c #927A69",
"6. c #B7906E",
"7. c #B78F73",
"8. c #B49074",
"9. c #C7A98B",
"0. c #D2A886",
"q. c #D3A989",
"w. c #D4AB8B",
"e. c #D7AF8F",
"r. c #DCB28F",
"t. c #D1B195",
"y. c #DFB391",
"u. c #E1B796",
"i. c #E2B893",
"p. c #E6BF9F",
"a. c #E9BF9C",
"s. c #E8BF9C",
"d. c #E9BF9E",
"f. c #EBBE9B",
"g. c #E3BFA1",
"h. c #EDBFA2",
"j. c #E5C39D",
"k. c #E9C09C",
"l. c #EAC19D",
"z. c #EBC19D",
"x. c #E9C19F",
"c. c #EBC19F",
"v. c #EBC29E",
"b. c #EAC29C",
"n. c #ECC09D",
"m. c #EAC19D",
"M. c #FFE48C",
"N. c #FDE290",
"B. c #E9C0A2",
"V. c #EFC4A3",
"C. c #EDC6A6",
"Z. c #ECC2A1",
/* pixels */
"                                                                                                                                ",
"                                                                                                                                ",
"                                                                                                                                ",
"                                                                                                                                ",
"                                                                                              . . . . . .                       ",
"                                                                                        # + + - : > > > r o o                   ",
"                                                                                        . . . M D D D D D . .                   ",
"                                                                                      . D D D D D M m m v l l .                 ",
"  4                                                                                 . D m M D N N N N D c m l l .               ",
"    2                                                                               . D M A N S B B B M B v l l .               ",
"    4 ,                                                                             . D M D M A B N D M D v l l .               ",
"  4   4 4                                                                           . D M D M A B Z D M D M l l .               ",
"    4 4 3 p p                                                                       . D m d.z.z.7.N D v D M l l .               ",
"  4   4 4 p p p                                                                     . D m a.z.z.7.N D v D M l l .               ",
"  3   4 4 p p p L                                                                 # O D v a.z.z.7.N A M A v N l X               ",
"    4 4 4 p p i J I L L                                                           . D N c a.z.z.6.v N D v D q.v &               ",
"  4   4 4 i i i K I I L Y Y                                                         . . Z.z.z.z.z.Z.z.Z.q.c.0.M O               ",
"    4 4 4 i i i K L L K Y Y Y Y                                                       . z.z.z.z.z.z.z.k.c.z.w.x O               ",
"  4   4 4 i i p K L I K Y Y Y Y ( (                                                   . z.z.z.z.k.z.z.B.0.x b %                 ",
"  4   4 4 i i i K L I K Y Y Y Y ( )                                                   . z.Z.z.z.b.z.k.V.t.M l .                 ",
"    3 4 4 i i p K L W K W Y Y Y ( ( ( (                                               . h.z.z.c.z.z.b.Z.e.l .                   ",
"  4   4 3 i i p K K Y ^ ) ^ Y Y ( ( ( ( ( )                                             . . . . ! Z.9.. . . .                   ",
"    4 4 3 p p p J L U W ( Y Y Y ( ( ( ( ( ` | =.@.                                        . a P >.C.t.j f 6 9 .                 ",
"  3   4 4 p p p I ^ U L W W W W ` ` ) ` ( [ %.*.&.[ [                                   X e d P / _ Q h f y a 6 X               ",
"  4   4 4 i i i U ^ ^ K Y Y Y Y ( ( ( ( ( ` ] *.X.} |                                   . a f R / ' ( f f y f q .               ",
"    4 4 4 i i i Y ^ ^ K Y Y Y Y ( ( ( ( ( ` } *.X.| | <.,.                            . 7 d f P R ^ R f f y f f f .             ",
"  4   4 2 i K I I K K K Y Y Y W ( ( ( ( ( ` ] -.O.O.} ,.,.:.. . .       # . . .       . 9 f f R R / R d f y f f f .             ",
"    3 4 4 J I a I I I I W W W W ` ` ( ` ) [ X.;.O.O.O.<.2.. N.E g . . . G g.g.k..     . 7 f f P R / R f d y f f f X             ",
"  1 4 4 5 L p a L U I I Y W W W ` ` ` ` ` ` &.;.&.&.&.2.2.. N.E k & F C +.a.f.c.. # # . 7 a f R R ^ R f f y f f d X             ",
"  4   4 J i U i J I L K Y Y Y Y ( ( ( ( ( ` } -.O.O...,.,.. M.E E E f.r.y.i.r.c.. . . . 7 f f R R / R f f y y f d .             ",
"    J 4 4 I i i K K L L Y Y Y Y ( ( ( ( ( ` ` *.O.O...:.,.. M.E g . f.r.i.i.y.Z.a f f f 7 d f R R R R f f y u f f .             ",
"  J   p 4 i i i K I L K Y Y Y Y ( ( ( ( ( ` } *...|  .:.,.:.. . . . a.z.k.c.n.c.7 7 6 6 6 f f R ^ / R f f y y . f f .           ",
"  4 5 J 3 p p p L I I L ^ ^ ^ ^ ` ` ` ` ` $.-.;.-.*.-.2.2.) o + o o 4.4.5.5.5.4.* % * * & f f P W ^ R d f y y . d f .           ",
"  5 i p 5 p p i K L I L Y W Y Y ) ( ( ( ( ) $.-.&.O.| <.<.          . . . . . . . . . . . a f R W ^ R f f y y . f f .           ",
"  4   4 2 i p p K L L K Y Y Y Y ( ( ( ( ( ` ..-.O.| |                                   . f d P R ^ R d f y y . f f .           ",
"    3 3 3 i p p K I L K Y Y Y Y ` ( ( ( ( ` | *.%.                                      . a f R W ^ R f d y y . f f f @         ",
"  2 1 4 4 p p p K I I L W W W W ( ` ( ` ) [                                             . f f d j P d f f y y . $ f d @         ",
"  4   3 4 p p p K I L L Y W Y Y ( ` ( ( ( )                                             . f f y d h u d f y y . . d f O         ",
"    4 3 4 i i p K L L h Y Y Y Y ` ( ( (                                                 . f a k j g T d f t t . . a f @         ",
"  4   4 4 i i p K L L K Y Y Y Y ) )                                                       . d k T T k d f d . , . u f O         ",
"    4 4 4 p i i J L L a Y Y R W                                                           . w P e . X w T e . . b.k.z.r         ",
"    4 4 4 p p p K I I L Y R U U                                                           . u k w . . w T e . . k.k.z.r         ",
"  4   4 4 p p p L L L L Y Y                                                               . k d = . X w T u . . b.z.b.r         ",
"    3 3 4 i i i K L L L                                                                   . w w = o   . e T T . j.b.z.r         ",
"  4   4 4 p i i K                                                                         . k d = +   . w T e . . . . ,         ",
"    3 3 4 p p                                                                             . k T e +   . T T w .                 ",
"    2 4 4 4 4                                                                             . j T e +   . j T d .                 ",
"  4   4 4                                                                                 . e P e +   . e R e .                 ",
"    4                                                                                     . T d = +     . R T w .               ",
"  4                                                                                       . w w = o     . w T e .               ",
"                                                                                          . h h 9 +     . e T h .               ",
"                                                                                          . T T w +     . w T T .               ",
"                                                                                          . T y = +     . P T T .               ",
"                                                                                          . T u = +       . w T e .             ",
"                                                                                          . w k e +       . e d T .             ",
"                                                                                          . w T q +       . e e T .             ",
"                                                                                          . w w = +       . T w d .             ",
"                                                                                          . T y = +       . T R T .             ",
"                                                                                        . . n n ; +       . n n V X . #         ",
"                                                                                    h + 0 0 V V 0 * a h f . V V V 0 ; O q f d   ",
"                                                                                    E . n n V n 0 = E E E . C C V V n O g E T   ",
"                                                                                  E E . <.1.<.<.~ ; E E E . <.1.<.1.1.% g E E E ",
"                                                                                    E E E E E E E E E E E E E E E E E E E E R   ",
"                                                                                                                                "
};
