/* XPM */
static char *d3a57b06bc734a06b83d9e40d8b07c46nkMCj41BdSr2Z0Km[] = {
/* columns rows colors chars-per-pixel */
"64 64 152 2 ",
"   c None",
".  c #010102",
"X  c #04050D",
"o  c #08070E",
"O  c #0B0B0D",
"+  c #050611",
"@  c #0A0A12",
"#  c #0A091B",
"$  c #0E1010",
"%  c #131315",
"&  c #181817",
"*  c #15151A",
"=  c #1C1D1E",
"-  c #361E1B",
";  c #2B251F",
":  c #37221B",
">  c #3A221E",
",  c #0D0C25",
"<  c #1D1E22",
"1  c #14132C",
"2  c #19162E",
"3  c #1A192F",
"4  c #1A1931",
"5  c #231F3A",
"6  c #1F2027",
"7  c #1E2029",
"8  c #1F2037",
"9  c #222325",
"0  c #2B2521",
"q  c #24252A",
"w  c #262B2D",
"e  c #282B2E",
"r  c #352C23",
"t  c #252731",
"y  c #272931",
"u  c #2A2E32",
"i  c #27263A",
"p  c #28273B",
"a  c #2C2C3B",
"s  c #302F34",
"d  c #2E3136",
"f  c #2E3038",
"g  c #343534",
"h  c #32353A",
"j  c #35393D",
"k  c #393C3E",
"l  c #44231B",
"z  c #462420",
"x  c #4B2C26",
"c  c #4F2F28",
"v  c #562F29",
"b  c #4F322D",
"n  c #43392E",
"m  c #553127",
"M  c #543129",
"N  c #5A342C",
"B  c #5D392D",
"V  c #433A31",
"C  c #4B3E31",
"Z  c #5F3730",
"A  c #5F3931",
"S  c #60382F",
"D  c #633B34",
"F  c #53452F",
"G  c #4A4034",
"H  c #40403F",
"J  c #2E2D42",
"K  c #302F42",
"L  c #333344",
"P  c #3A3E44",
"I  c #373548",
"U  c #383749",
"Y  c #3D3D4B",
"T  c #3D4144",
"R  c #3D4049",
"E  c #454544",
"W  c #40414E",
"Q  c #4E4E4D",
"!  c #514B40",
"~  c #504E4C",
"^  c #434552",
"/  c #474A53",
"(  c #4D4A56",
")  c #4E4C58",
"_  c #524F57",
"`  c #514E5A",
"'  c #4E505B",
"]  c #53505C",
"[  c #53505E",
"{  c #50505D",
"}  c #56535D",
"|  c #57545E",
" . c #57565D",
".. c #56555D",
"X. c #58575E",
"o. c #58575E",
"O. c #5A595F",
"+. c #7E6653",
"@. c #565662",
"#. c #575760",
"$. c #565661",
"%. c #575860",
"&. c #5A5962",
"*. c #5E5D62",
"=. c #5B5B67",
"-. c #5D5B63",
";. c #616067",
":. c #6F6F6F",
">. c #776C6C",
",. c #6F6E72",
"<. c #747374",
"1. c #787372",
"2. c #747478",
"3. c #8E7C63",
"4. c #927B65",
"5. c #927A69",
"6. c #B7906E",
"7. c #B78F73",
"8. c #B49074",
"9. c #C7A98B",
"0. c #D2A886",
"q. c #D3A989",
"w. c #D4AB8B",
"e. c #D7AF8F",
"r. c #DCB28F",
"t. c #D1B195",
"y. c #DFB391",
"u. c #E1B796",
"i. c #E2B893",
"p. c #E6BF9F",
"a. c #E9BF9C",
"s. c #E8BF9C",
"d. c #E9BF9E",
"f. c #EBBE9B",
"g. c #E3BFA1",
"h. c #EDBFA2",
"j. c #E5C39D",
"k. c #E9C09C",
"l. c #EAC19D",
"z. c #EBC19D",
"x. c #E9C19F",
"c. c #EBC19F",
"v. c #EBC29E",
"b. c #EAC29C",
"n. c #ECC09D",
"m. c #EAC19D",
"M. c #FFE48C",
"N. c #FDE290",
"B. c #E9C0A2",
"V. c #EFC4A3",
"C. c #EDC6A6",
"Z. c #ECC2A1",
/* pixels */
"                                                                                                                                ",
"                                                                                                                                ",
"                                                                                                                                ",
"                                                                                                                                ",
"                      . . . . . .                                                                                               ",
"                  o + > > > > : - X + #                                                                                         ",
"                  . . D D D D D N . . X                                                                                         ",
"                . l l m m m m D D D D D .                                                                                       ",
"              X l l m v D v B M N D m v D .                                                                                 4   ",
"              . l l v B N Z B B A N Z v D .                                                                               2     ",
"              . l l m D v D N B A M A v D .                                                                             , 4     ",
"              . l l m D v D B B A M D m D .                                                                           4 4   4   ",
"              . l l v D v A N 7.v.s.d.v D .                                                                       p i 2 4 4     ",
"              . l > v D v D N 8.v.k.f.m D .                                                                     p p i 4 4   4   ",
"              . l B v D N D N 7.s.v.f.m D O #                                                                 L p p p 4 4   3   ",
"              % c q.A v D v N 6.v.v.s.m N D .                                                           L I L L i p p 3 4 4     ",
"              O b 0.b.q.v.v.v.k.k.v.v.h.. .                                                         R Y L I L K p p i 4 3   4   ",
"              O x w.v.Z.k.v.k.v.v.k.f.v..                                                       Y Y Y Y K I L K i p i 4 3 4     ",
"                $ b x 0.k.v.v.k.k.v.k.v..                                                   ( ( Y Y Y Y L L L K p i i 4 4   4   ",
"                . z N e.C.v.s.v.v.k.v.f..                                                   ( ( Y Y Y Y K L L K p i i 3 4   4   ",
"                  . l e.b.b.b.C.v.v.v.h..                                               ( ( ( ( Y Y Y ^ K W L K p p p 3 4 4     ",
"                  . . . . 9.b.G . . . .                                             ) ( ( ( ( ( Y Y ^ ) ^ Y L K p p p 3 4   4   ",
"                . q 6 d L t.C.>.P s .                                         #.=.#.` ( ( ( ( ( Y Y Y ( W I L K p p p 3 4 4     ",
"              X 6 a w f h ~ _ ' P a e X                                   $.` #.;.@.` ( ` ( ` ` ^ W W W L U ^ L p p p 4 4   4   ",
"              . w f y f d ' ' / P a a .                                    . .X.-.} ` ( ( ( ( ( Y Y Y Y K ^ ^ I p i i 4 4   4   ",
"            . f f f y f d R ^ R P h f 6 .                             ,.,. . .X.*.} ` ( ( ( ( ( Y Y Y Y K ^ ^ Y p i i 4 4 4     ",
"            . f f f y f f R / W P f f 9 .       . . . #       . . . :.,.,. . .X.-.[ ` ( ( ( ( ( Y Y Y Y K K L I L L i 2 4   4   ",
"            X f f f y f d R ^ W R f f 7 .     . j.d.g.G . . . g E N.. 2.2.O.&.&.;.#.` ` ( _ ( _ W W W W L I I I a L J 4 4 4     ",
"            . f f f y f f R ^ R P f f 9 . # # . n.f.s.+.C F & k E N.. 2.2.O.-.-.;.&.[ ` ` ` ` ` W W W W L I I L p p L 5 4 3 1   ",
"            X f f e y f f R / W P f f 9 . . . . n.r.i.y.r.f.E E E M.. ,.,... .X.-.[ ` ( ( ( ( ( Y Y Y Y h L L K p I p J 4   4   ",
"            . f f y y f f R W R R f f 3 a f f a Z.r.u.i.r.f.. g E M.. ,.,. . .X.-.} ) ( ( ( ( ) Y Y Y Y K L L K p p I 4 4 J     ",
"          . f f . y y f f R ^ W P f f 7 6 6 6 7 Z.v.n.v.d.f.. . . . >.,.,. . .X.-.} ` ( ( ( ( ) Y Y Y Y L L L K i p p 4 p   J   ",
"          . f f . y y f d R / R P f h * * & % * 4.5.5.4.>.8.o o + o ( 2.2.*.*.-.;.&.$.` ` ` ` ` ^ ^ ^ W L I I L p p p 3 a 5 4   ",
"          . f f . y y f d R ^ ^ P f a . . . . . . . . . . .           <.2...X.&.-. .) ( ( ( ` ( W Y W Y L L I K p p p 4 J 5 5   ",
"          . f f . y y d f R ^ R R f a .                                    . .X.-...` ( ( ( ( ( Y Y Y Y L L L K i i i 3 4   4   ",
"        O f f f . y y f f R ^ R P f f .                                       $.-.$.` ( ( ( ( ( Y Y Y Y L L L K p i i 3 4 4     ",
"        @ f f $ . y y d f f k j f f a .                                             ] ( ` ) ` ) W Y W Y I I I K p p p 4 4 1 2   ",
"        O f f . . y y f f e h u u f f .                                             ) ( ( ( ) ( Y W Y Y K I I K p p p 3 4   4   ",
"        + f u . . e y f f P j j k f a .                                                 ( ( ) ) Y Y Y Y K L L K p p p 3 3 4     ",
"        O f u . , . f f f k T T P d .                                                       ( ) Y Y W Y K I L K p p p 4 4   4   ",
"        r d.f.v.. . e T e . . e k e .                                                           R Y Y Y f L L a i i p 4 3 4     ",
"        r v.v.v.. . e T u o . q k e .                                                           U U W Y L I I L p p p 3 4 2     ",
"        r v.k.k.. . y T w X . = u T .                                                               Y U L L I J p p p 3 4   4   ",
"        r v.v.j.. T T u .   o = e e .                                                                   L L L K p i i 3 4 4     ",
"        , . . . . e T e .   + * u P .                                                                         L p p p 4 4   4   ",
"                . e T T .   + e T P .                                                                             p p 4 3 3     ",
"                . e T j .   o w T g .                                                                             4 4 4 4 2     ",
"                . e T u .   o w P e .                                                                                 4 3   4   ",
"              . e T T .     + = u k .                                                                                     4     ",
"              . e T e .     + = e w .                                                                                       4   ",
"              . j T e .     + 9 j g .                                                                                           ",
"              . R T u .     + w R T .                                                                                           ",
"              . T T P .     + = u k .                                                                                           ",
"            . w T e .       + = y T .                                                                                           ",
"            X T y e .       + e k e .                                                                                           ",
"            . E e u .       + w P y .                                                                                           ",
"            . d e T .       + = e e .                                                                                           ",
"            . T T T .       + = u T .                                                                                           ",
"        # . . V n n .       + ; n n . .                                                                                         ",
"  u f e @ 0 0 V V n . f f h * 0 n V ; 0 + h                                                                                     ",
"  H E g O n V V V C . E E E 9 ; n g n n . E                                                                                     ",
"E E E g & 1.1.<.<.1.. E E E = ~ 1.1.1.1.. E E                                                                                   ",
"  T E E E E E E E E E E E E E E E E E E E E                                                                                     ",
"                                                                                                                                "
};
