/* XPM */
static char *result[] = {
/* columns rows colors chars-per-pixel */
"64 64 17 1 ",
"  c black",
". c gray1",
"X c gray23",
"o c gray32",
"O c gray34",
"+ c gray47",
"@ c #A30000",
"# c gray52",
"$ c gray64",
"% c gray72",
"& c gray74",
"* c gray81",
"= c gray84",
"- c gray91",
"; c gray92",
": c white",
"> c None",
/* pixels */
">>>>>>>>>>>>>>>>>>>>>>>>>>>>>>>>>>>>>>>>>>>>>>>>>>>>>>>>>>>>>>>>",
">>>>>>>>>>>>>>>>>>>>>>>>>>>>>>>>>>>>>>>>>>>>>>>>>>>>>>>>>>>>>>>>",
">>>>>>>>>>>>>>>>>>>>>>>>>>>>>>>>>>>>>>>>>>>>>>>>>>>>>>>>>>>>>>>>",
">>>>>>>>>>>>>>>>>>>>>>>>>>>>>>>>>>>>>>>>>>>>>>>>>>>>>>>>>>>>>>>>",
">>>>>>>>>>>>>>>>>>>>>>>>>>>>>>>>>>>>>>>>>>>>>>>>>>>>>>>>>>>>>>>>",
">>>>>>>>>>>>>>>>>>>>>>>=>>>>>>>>>>>>>>>>>>>>>>>>>>>>>>>>>>>>>>>>",
">>>>>>>>>>>>>>>>>>>>>=...>>>>.....>>>>>>>>>>>>>>>>>>>>>>>>>>>>>>",
">>>>>>>>>>>>>>>>>>>>=.....>>.*&$$#.>>>>>>>>>>>>>>>>>>>>>>>>>>>>>",
">>>>>>>>>>>>>>>>>>>=..>=..>.**&&$$#.=:..=>>>>>>>>>>>>>>>>>>>>>>>",
">>>>>>>>>>>>>>>>>>>..=>=..>.-**&&$#.>.=..=>>>>>>>>>>>>>>>>>>>>>>",
">>>>>>>>>>>>>>>>>>>..=>=..>.-**&&$#.>>>=..>>>>>>>>>>>>>>>>>>>>>>",
">>>>>>>>>>>>>>>>>>>..=>..=>.-**&&$#.>>>=..>>>>>>>>>>>>>>>>>>>>>>",
">>>>>>>>>>>>>>>>>>>...>>>>>.-**&&$#.>>>=..>>>>>>>>>>>>>>>>>>>>>>",
">>>>>>>>>>>;>>>>>>>=...=>>>.-**&&$#.>>>...>>>>>>>>>>>>>>>>>>>>>>",
">>>>>>>>>>>;>>>>>>>>=...=>>.**&&$$#.>>...>>>>>>>>>>>>>>>>>>>>>>>",
">>>>>>>>>>>;>>>>>>>>>>...=>>.*&$$#.>>=..=>>>>==>>>>>>>>>>>>>>>>>",
">>>>>>>>>>>>=>>>>>>>>==...===.....>===..=:=....=>>>>>>>>>>>>>>>>",
">>>>>>>>>>>>>=>>>>>>=...................==......:>>>>>>>>>>>>>>>",
">>>>>>>>>>>>>=>>>>>=......OOOo.@.OOOXX..=...==..=>>>>>>>>>>>>>>>",
">>>>>>>>>>>>=>>>>>>...=.OOOOOo.@.OOOOoX....=>==.=>>>>>>>>>>>>>>>",
">>>>>>>>>>>=>>>>==...>=.OOOOOo...OOOOoX...=>>>>.==>>>>>>>>>>>>>>",
">>>>>>>>>>>=>>>>....>=..OO.OOo.@.OOO.oX..=>>...=>>>>>>>>>>>>>>>>",
">>>>>>>>>>>>.==....==...OO.OOo.@.OOX.oX.=>>>==...>>>>>>>>>>>>>>>",
">>>>>>>>>>>>.....===....OO.OOo.@.OOX.oX.=>>>>>==..>>>>>>>>>>>>>>",
">>>>>>>>>>>>>...==......OO.OOo.@.OOX.oX..=>>>>>=..>>>>>>>>>>>>>>",
">>>>>>>>>>>>>>==>....=..OO.OOo.@.OOX.oX...=>>>>=..>>>>>>>>>>>>>>",
">>>>>>>>>>>>>>>>>...=>=.OO.OOo.@.OOX.oX....=>>=..>>>>>>>>>>>>>>>",
">>>>>>>>>>>>>>>>>..>>>=.OO.OOOo.OOOX.oX..=.===...>>>>>>>>>>>>>>>",
">>>>>>>>>>>>>>>>>...=>>.OO.OOOo..OOX.oX.==......>>>>>>>>>>>>>>>>",
">>>>>>>>>>>>>>>>>=...=>.OO.OOOo.OOOX.oX.=>=....>>>>>>>>>>>>>>>>>",
">>>>>>>>>>>>>>>>>>=..=>.OO.OOOo..OOX.oX.=>>==>>>>>>>>>>>>>>>>>>>",
">>>>>>>>>>>>>>>>>>=..=>.OO.OOOo.OOOX.oX.=>>>>>>>>>>>>>>>>>>>>>>>",
">>>>>>>>>>>>>>>>>>=..=>....OOo...OOX. ..=>>>>>   >>>>>>>>>>>>>>>",
">>>>>>>>>>>>>>>>>>..=>>.++.Oo.$$$.OX.++. =>>= ==  >>>>>>>>>>>>>>",
">>>>>>>>>>>>>=>>>..=>>>.++.o.OOOOO.X.++.  =>>>>>=  >>>>>>>>>>>>>",
">>>>>>>>>>>>>=>>>>>>>>>.....OO...OO..  .   =>>>>=  >>>>>>>>>>>>>",
">>>>>>>>>>>>>=>>>>>>>>>.%+.OOo.>.OOO.%+.=  ==>==  >>>>>>>>>>>>>>",
">>>>>>>>>>>: =>>>   =>>.%+.OOo.>.OOO.%+.>=   =   >>>>>>>>>>>>>>>",
">>>>>>>>>>>= >>>     ==>...OOo.>.OOO...>>>=     >>>>>>>>>>>>>>>>",
">>>>>>>>>>> =>==  ==   =>>.OOo.>.OOO.=>>>>>==  >>>>>>>>>>>>>>>>>",
">>>>>>>>>>>  =    =>=   ==.OOo.>.OOO.=>==>>>>>>>>>>>>>>>>>>>>>>>",
">>>>>>>>>>>=     =>>>=    .OOo.>.OOo. =   =>>>>===>>>>>>>>>>>>>>",
">>>>>>>>>>>>=  ==>>>>>=   .OoX.>.OOo.      =>>=   =>>>>>>>>>>>>>",
">>>>>>>>>>>>>>>>>>>>>>>=  .OoX.>.OOo.  ==   ==  == =>>>>>>>>>>>>",
">>>>>>>>>>>>>>>>>> >>>>>= .OoX.>.OoX.  >>=     =>>  >>>>>>>>>>>>",
">>>>>>>>>>>>>>>>>   >>>>> .OoX.>.OoX. =>>>=   =>>>= >>>>>>>>>>>>",
">>>>>>>>>>>>>>>>  =  >>>>=.OoX.>.OoX.=>>>=>>>>>>>>=  >>>>>>>>>>>",
">>>>>>>>>>>>>>>  =>=  >>>>.OoX.>.OoX.>>>=>=>>>>>>>> >>>>>>>>>>>>",
">>>>>>>>>>>:>>>> =>>=   : .OoX.>.OoX.=>>>>>=...=>>>>=>>>>>>>>>>>",
">>>>>>>>>>>>>>>> == >=    .OoX.>.OoX. =>>>>>==...>>>=>>>>>>>>>>>",
">>>>>>>>>>>>>>>>>  :=>>   .OoX.>.OoX. ==>>>:>>>=..>>>>>>>>>>>>>>",
">>>>>>>>>>>>>>>>>>>>:=>=  .OoX.>.OoX.   ==>>>>>=..>>>>>>>>>>>>>>",
">>>>>>>>>>>>>>>>>>>>=>>>= .OoX.>.OoX.   ..=>>>>=..>>>>>>>>>>>>>>",
">>>>>>>>>>>>>>>>>>:>>>>>: .OoX.>.OoX.  =  .>>>>..>>>>>>>>>>>>>>>",
">>>>>>>>>>>>>>>>>>>>>>>>>=.OoX.>.OoX. =>> ..==...>>>>>>>>>>>>>>>",
">>>>>>>>>>>>>>>>>>>>>>>>>>.OoX.>.OoX.=>>>=......>>>>>>>>>>>>>>>>",
">>>>>>>>>>>>>>>>>>>>>>>>>>..X..>..X..=>>>>=....>>>>>>>>>>>>>>>>>",
">>>>>>>>>>>>>>>>>>>>>>>>>......>......>>>>>>>>>>>>>>>>>>>>>>>>>>",
">>>>>>>>>>>>>>>>>>>>>>>>.......>.......>>>>>>>>>>>>>>>>>>>>>>>>>",
">>>>>>>>>>>>>>>>>>>>>>>........>........>>>>>>>>>>>>>>>>>>>>>>>>",
">>>>>>>>>>>>>>>>>>>>>>>>>>>>>>>>>>>>>>>>>>>>>>>>>>>>>>>>>>>>>>>>",
">>>>>>>>>>>>>>>>>>>>>>>>>>>>>>>>>>>>>>>>>>>>>>>>>>>>>>>>>>>>>>>>",
">>>>>>>>>>>>>>>>>>>>>>>>>>>>>>>>>>>>>>>>>>>>>>>>>>>>>>>>>>>>>>>>",
">>>>>>>>>>>>>>>>>>>>>>>>>>>>>>>>>>>>>>>>>>>>>>>>>>>>>>>>>>>>>>>>"
};
