/* XPM */
static char *_95f2368d8da4b36f6195dcd4d32d9b4LkvkvSHrxE2ElVKW[] = {
/* columns rows colors chars-per-pixel */
"64 64 119 2 ",
"   c None",
".  c #2E2E2E",
"X  c #2F312C",
"o  c #31312F",
"O  c #333332",
"+  c #373935",
"@  c #393A37",
"#  c #3C3D3B",
"$  c #3F413E",
"%  c #41423F",
"&  c #444543",
"*  c #464846",
"=  c #494946",
"-  c #4C4D4B",
";  c #4E504D",
":  c #50514E",
">  c #545552",
",  c #565855",
"<  c #595957",
"1  c #5C5D5A",
"2  c #5F615E",
"3  c #61625F",
"4  c #646563",
"5  c #676966",
"6  c #696967",
"7  c #6C6C6B",
"8  c #6F716E",
"9  c #70716F",
"0  c #747472",
"q  c #777875",
"w  c #787977",
"e  c #7C7C7A",
"r  c #7E807C",
"t  c #81827E",
"y  c #838582",
"u  c #868986",
"i  c #888A86",
"p  c #8C8D8B",
"a  c #8E908D",
"s  c #90918E",
"d  c #8F9190",
"f  c #929290",
"g  c #929292",
"h  c #919191",
"j  c #929490",
"k  c #939590",
"l  c #929491",
"z  c #939591",
"x  c #949691",
"c  c #949492",
"v  c #949693",
"b  c #959793",
"n  c gray58",
"m  c #959595",
"M  c #959794",
"N  c #949695",
"B  c #969794",
"V  c #979795",
"C  c #949592",
"Z  c #969895",
"A  c #979996",
"S  c #969897",
"D  c #979895",
"F  c #989996",
"G  c #999A97",
"H  c gray60",
"J  c #989A99",
"K  c #9A9A98",
"L  c #9B9C99",
"P  c #9C9E99",
"I  c #9C9C9A",
"U  c gray61",
"Y  c #9C9E9D",
"T  c gray62",
"R  c #9C9D9A",
"E  c #9FA19C",
"W  c #9FA19C",
"Q  c #A0A09E",
"!  c #A1A19F",
"~  c #A3A5A1",
"^  c #A4A4A2",
"/  c #A5A5A3",
"(  c #A4A7A3",
")  c #A2A3A1",
"_  c #A5A8A5",
"`  c #A9ABA6",
"'  c #A8A9A5",
"]  c gray66",
"[  c #A9A9A9",
"{  c #ACACAA",
"}  c #AFB1AC",
"|  c #AFB1AD",
" . c #B2B2AF",
".. c #B3B3B1",
"X. c gray71",
"o. c #B5B7B3",
"O. c #B8BAB6",
"+. c #BABCB7",
"@. c gray72",
"#. c #B9B9B9",
"$. c gray73",
"%. c gray74",
"&. c gray",
"*. c #BCBCBA",
"=. c #BFC1BC",
"-. c #BFC1BD",
";. c #C0C0BE",
":. c #C1C1BF",
">. c #C1C2BE",
",. c #C1C1C0",
"<. c #C3C3C3",
"1. c #C4C4C2",
"2. c #C8C8C6",
"3. c #C8C8C8",
"4. c #CBCBCB",
"5. c gray80",
"6. c #CDCDCD",
"7. c #CCCDCA",
"8. c #D2D2D0",
/* pixels */
"                                                                                                                                ",
"                                                                                                                                ",
"                                                                                                                                ",
"                                                                                                                                ",
"                                                                                                                                ",
"                                                            9 p y n                                                             ",
"                                                        0 g u * , 7                                                             ",
"                                                      w [ e : . .       & d                                                     ",
"                                                      p h u = O # O   . O g 7                                                   ",
"                                                      e g #.y & . @ . # & p 8                                                   ",
"                                                      4 p 6.$.y * # @ & y g 9                                                   ",
"                                                      6 p ] &.<.w - . & &.m 5                                                   ",
"                                                      w p e U 4.U 0 # # 5.p 4 #                                                 ",
"                                                      : e 4 p X.#.m # O $.g 7 &                                                 ",
"                                                        4 6 p T 3.m . O H p 9 & @                                               ",
"                                                        4 0 s p <.u O : e 7 6 - 1 #                                             ",
"                                                          9 p Q l a + $ d 5 2 * & 0 N p U w                                     ",
"                                                          3 9 a l l @ + u 9 7 ; p d d y Y e                                     ",
"                                                          3 7 a a r X X i y 9 O u d N d d 1                                     ",
"                                                          7 9 i y r % & d d 7   > 0 d e 2                                       ",
"                                                          4 6 9 r x q ; q u 4                                                   ",
"                                          1 :             < 7 9 i E r $ - q 2                                                   ",
"                                        1 c 0 1         : - 9 r r i u - * 5 4                                                   ",
"                                        y c 6 f q       9 % 3 q q r } k 5 > 7 7                                                 ",
"                                        e I 9 4 3 t 4   : t :.0 - 8 E o.2 = 8 5                                                 ",
"                                          9 V q w t 8 O 7 t ..6 } ` =.a $ 2 q 5                                                 ",
"                                            1 < 9 1 1 # e t >.K j t =.b > E r 8                                                 ",
"                                                1 & : & 9 6 ^ V E r } ( r ( k p                                                 ",
"                                                    o O q 9 ! I y 2 2 p r k Z b                                                 ",
"                                                        9 0 K f 2 i a =.( i b p                                                 ",
"                                                        6 0 c I $ k E o.Z r a Z                                                 ",
"                                                        7 7 i K $ x p E v a a Z                                                 ",
"                                                        t 0 G : ; b A j u r E p                                                 ",
"                                                        t G ! % ; a A b a u i 8                                                 ",
"                                                          t t 3 * r i a a i u 7 2                                               ",
"                                                          G V p * 8 i p u a a u q                                               ",
"                                                          x E P * 5 a l i a a d 3                                               ",
"                                                          9 s s $ * r d a i r u a 5 3                                           ",
"                                                      % % 6 V G - $ 5 r i a r y Z a i =                                         ",
"                                            0 w V e   % % % s s u ; 2 r i N r a i u a r <                                       ",
"                                            q f f p u 0 3 & P r N r , , r y d u a a a S b 2                                     ",
"                                          6 Q c t u p i 6 : >.k 1 r 2 ; , 5 r r y t a d b r ;                                   ",
"                                          3 u e f f p c 3 % >.3 * 5 8 , * , 5 8 r r a d i b 7                                   ",
"                                                y p i s 1 % >.- ; , ; , * $ ; 1 , 2 d E b E 0                                   ",
"                                                  + = - = > *.> 1 ; ; 2 , $ * *     2 p y b r                                   ",
"                                                        e E  .3 , 2 , 4 1 ; ; *                                                 ",
"                                                        ' >.9 : ; , , , ; ; 2 *                                                 ",
"                                                        >.7.% 3 5 , * ; ; , 8 5                                                 ",
"                                                        1.7.4 : : < : < : > 7 ,.                                                ",
"                                                        1.] < 1 > 1 : < : < 7 ,.                                                ",
"                                                        #.9 & 1 > < > < > 1 7 ,.                                                ",
"                                                        *.< : 7 : < > > > 2 6 ,.                                                ",
"                                                        } < 1 7 : > : > > 4 4 ,.                                                ",
"                                                        t - < < : > : : > 4 3 :.                                                ",
"                                                      % 3 : > : : > > : < 6 1 1.                                                ",
"                                                    : 6 - : > - : : < : 1 7 3 2.                                                ",
"                                              u e 6 = = 1 : = < < < = < 6 : 9 *.2.                                              ",
"                                            = 4 1 : = < 0 9 < = : < 3 4 4 > < e  .                                              ",
"                                          1 K p & - < 0 p V e : : > 6 1 > 1 > 6 8.! 3                                           ",
"                                        7 ! K r : > 6 0 y Q f 4 = < 3 @ @ > 3 f V c 6 O o                                       ",
"                                        e Q 0 <           = 1 : 4 t 6         % 1 3 : % #                                       ",
"                                                            @ : : f 1                                                           ",
"                                                            % w 4 p -                                                           ",
"                                                              : 1 <                                                             "
};
